<svg width="80" height="60" viewBox="0 0 80 60" fill="none" xmlns="http://www.w3.org/2000/svg">
<g clip-path="url(#clip0_2514_579)">
<path d="M30 60C46.5685 60 60 46.5685 60 30C60 13.4315 46.5685 0 30 0C13.4315 0 0 13.4315 0 30C0 46.5685 13.4315 60 30 60Z" fill="#8E44AD" fill-opacity="0.93"/>
<path d="M50 60C66.5685 60 80 46.5685 80 30C80 13.4315 66.5685 0 50 0C33.4315 0 20 13.4315 20 30C20 46.5685 33.4315 60 50 60Z" fill="#9B59B6" fill-opacity="0.68"/>
<path fill-rule="evenodd" clip-rule="evenodd" d="M37.3295 17.0388L36.4584 15.75L36.1245 15.0913C37.2328 15.031 38.3591 15 39.5 15C56.2987 15 69.9167 21.7157 69.9167 30C69.9167 38.2843 56.2987 45 39.5 45C22.7014 45 9.08337 38.2843 9.08337 30C9.08337 26.139 12.0414 22.6188 16.9008 19.9603C19.1405 19.6658 20.2861 19.8819 20.8539 20.2991C20.1651 20.5807 19.5054 20.8772 18.8768 21.1871C13.5746 23.8019 11.0834 27.0381 11.0834 30C11.0834 32.962 13.5746 36.1981 18.8768 38.8129C24.0513 41.3647 31.3401 43 39.5 43C47.66 43 54.9488 41.3647 60.1233 38.8129C65.4254 36.1981 67.9167 32.962 67.9167 30C67.9167 27.0381 65.4254 23.8019 60.1233 21.1871C54.9488 18.6353 47.66 17 39.5 17C38.7693 17 38.0455 17.0131 37.3295 17.0388Z" fill="white"/>
<path d="M32 16.5L44 12.6029V20.3971L32 16.5Z" fill="white"/>
<path d="M46 30C46 33.3137 43.3137 36 40 36C36.6863 36 34 33.3137 34 30C34 26.6863 36.6863 24 40 24C43.3137 24 46 26.6863 46 30Z" fill="white"/>
</g>
<defs>
<clipPath id="clip0_2514_579">
<rect width="80" height="60" fill="white"/>
</clipPath>
</defs>
</svg>
